<?xml version="1.0" encoding="UTF-8"?>
<svg id="Calque_2" data-name="Calque 2" xmlns="http://www.w3.org/2000/svg" viewBox="0 0 86.44 54.04">
  <defs>
    <style>
      .cls-1 {
        fill: #429775;
      }

      .cls-1, .cls-2, .cls-3 {
        stroke: #06151e;
        stroke-miterlimit: 10;
        stroke-width: 2px;
      }

      .cls-4 {
        letter-spacing: -.04em;
      }

      .cls-2 {
        fill: #f0f4ef;
      }

      .cls-3 {
        fill: #ed6d6b;
      }

      .cls-5 {
        letter-spacing: -.04em;
      }

      .cls-6 {
        fill: #1d1d1b;
        font-family: Geologica-Black, Geologica;
        font-size: 24.09px;
        font-variation-settings: 'wght' 900, 'CRSV' 0, 'SHRP' 0, 'slnt' 0;
        font-weight: 800;
      }
    </style>
  </defs>
  <g id="Calque_1-2" data-name="Calque 1">
    <g>
      <rect class="cls-2" x="1" y="1" width="84.44" height="50.64" rx="11.78" ry="11.78"/>
      <g>
        <text class="cls-6" transform="translate(6.68 24.5)"><tspan class="cls-5"><tspan x="0" y="0" xml:space="preserve">C     OK</tspan></tspan><tspan class="cls-4"><tspan x="0" y="21.68" xml:space="preserve">‘N   CO</tspan></tspan></text>
        <path class="cls-3" d="M42.44,16.5c0,4.59-3.92,8.16-8.76,7.97s-8.76-4.06-8.76-8.65,3.92-8.16,8.76-7.97,8.76,4.06,8.76,8.65Z"/>
        <path class="cls-1" d="M34.96,4.75h0c.75,0,1.36.61,1.36,1.36v1.91c0,1.18-.96,2.14-2.14,2.14h0c-1.18,0-2.14-.96-2.14-2.14v-.36c0-1.61,1.31-2.92,2.92-2.92Z" transform="translate(4.74 -11.44) rotate(20.38)"/>
      </g>
    </g>
  </g>
</svg>